<?xml version="1.0" encoding="UTF-8"?>
<svg version="1.1" xmlns="http://www.w3.org/2000/svg" width="2400" height="2400">
<path d="M0 0 C121.44 0 242.88 0 368 0 C368 21.45 368 42.9 368 65 C428.06 65 488.12 65 550 65 C550 84.8 550 104.6 550 125 C591.25 125 632.5 125 675 125 C675 145.46 675 165.92 675 187 C713.61 187 752.22 187 792 187 C792 207.13 792 227.26 792 248 C833.25 248 874.5 248 917 248 C917 266.81 917 285.62 917 305 C936.14 305 955.28 305 975 305 C975 325.79 975 346.58 975 368 C995.13 368 1015.26 368 1036 368 C1036 388.13 1036 408.26 1036 429 C1056.79 429 1077.58 429 1099 429 C1099 468.6 1099 508.2 1099 549 C1118.8 549 1138.6 549 1159 549 C1159 569.79 1159 590.58 1159 612 C1179.46 612 1199.92 612 1221 612 C1221 672.06 1221 732.12 1221 794 C1240.14 794 1259.28 794 1279 794 C1279 854.39 1279 914.78 1279 977 C1299.79 977 1320.58 977 1342 977 C1342 1097.78 1342 1218.56 1342 1343 C1321.21 1343 1300.42 1343 1279 1343 C1279 1404.05 1279 1465.1 1279 1528 C1259.86 1528 1240.72 1528 1221 1528 C1221 1587.4 1221 1646.8 1221 1708 C1200.54 1708 1180.08 1708 1159 1708 C1159 1728.79 1159 1749.58 1159 1771 C1139.2 1771 1119.4 1771 1099 1771 C1099 1810.93 1099 1850.86 1099 1892 C1078.21 1892 1057.42 1892 1036 1892 C1036 1912.13 1036 1932.26 1036 1953 C1015.87 1953 995.74 1953 975 1953 C975 1972.8 975 1992.6 975 2013 C955.86 2013 936.72 2013 917 2013 C917 2034.12 917 2055.24 917 2077 C875.75 2077 834.5 2077 792 2077 C792 2096.14 792 2115.28 792 2135 C753.39 2135 714.78 2135 675 2135 C675 2154.8 675 2174.6 675 2195 C633.75 2195 592.5 2195 550 2195 C550 2215.46 550 2235.92 550 2257 C489.94 2257 429.88 2257 368 2257 C368 2277.79 368 2298.58 368 2320 C246.56 2320 125.12 2320 0 2320 C0 2299.21 0 2278.42 0 2257 C-59.73 2257 -119.46 2257 -181 2257 C-181 2236.54 -181 2216.08 -181 2195 C-221.59 2195 -262.18 2195 -304 2195 C-304 2175.2 -304 2155.4 -304 2135 C-343.6 2135 -383.2 2135 -424 2135 C-424 2115.86 -424 2096.72 -424 2077 C-464.92 2077 -505.84 2077 -548 2077 C-548 2055.88 -548 2034.76 -548 2013 C-568.13 2013 -588.26 2013 -609 2013 C-609 1993.2 -609 1973.4 -609 1953 C-628.47 1953 -647.94 1953 -668 1953 C-668 1932.87 -668 1912.74 -668 1892 C-688.46 1892 -708.92 1892 -730 1892 C-730 1852.07 -730 1812.14 -730 1771 C-750.13 1771 -770.26 1771 -791 1771 C-791 1750.21 -791 1729.42 -791 1708 C-811.46 1708 -831.92 1708 -853 1708 C-853 1648.6 -853 1589.2 -853 1528 C-872.8 1528 -892.6 1528 -913 1528 C-913 1466.95 -913 1405.9 -913 1343 C-932.47 1343 -951.94 1343 -972 1343 C-972 1222.22 -972 1101.44 -972 977 C-952.53 977 -933.06 977 -913 977 C-913 916.61 -913 856.22 -913 794 C-893.2 794 -873.4 794 -853 794 C-853 733.94 -853 673.88 -853 612 C-832.54 612 -812.08 612 -791 612 C-791 591.21 -791 570.42 -791 549 C-770.87 549 -750.74 549 -730 549 C-730 509.4 -730 469.8 -730 429 C-709.54 429 -689.08 429 -668 429 C-668 408.87 -668 388.74 -668 368 C-648.53 368 -629.06 368 -609 368 C-609 347.21 -609 326.42 -609 305 C-588.87 305 -568.74 305 -548 305 C-548 286.19 -548 267.38 -548 248 C-507.08 248 -466.16 248 -424 248 C-424 227.87 -424 207.74 -424 187 C-384.4 187 -344.8 187 -304 187 C-304 166.54 -304 146.08 -304 125 C-263.41 125 -222.82 125 -181 125 C-181 105.2 -181 85.4 -181 65 C-121.27 65 -61.54 65 0 65 C0 43.55 0 22.1 0 0 Z " fill="#F2858F" transform="translate(1015,18)"/>
<path d="M0 0 C41.25 0 82.5 0 125 0 C125 18.81 125 37.62 125 57 C144.14 57 163.28 57 183 57 C183 77.79 183 98.58 183 120 C203.13 120 223.26 120 244 120 C244 140.13 244 160.26 244 181 C264.79 181 285.58 181 307 181 C307 220.6 307 260.2 307 301 C326.8 301 346.6 301 367 301 C367 321.79 367 342.58 367 364 C387.46 364 407.92 364 429 364 C429 424.06 429 484.12 429 546 C448.14 546 467.28 546 487 546 C487 606.39 487 666.78 487 729 C507.79 729 528.58 729 550 729 C550 849.78 550 970.56 550 1095 C529.21 1095 508.42 1095 487 1095 C487 1156.05 487 1217.1 487 1280 C467.86 1280 448.72 1280 429 1280 C429 1339.4 429 1398.8 429 1460 C408.54 1460 388.08 1460 367 1460 C367 1480.79 367 1501.58 367 1523 C347.2 1523 327.4 1523 307 1523 C307 1562.93 307 1602.86 307 1644 C286.21 1644 265.42 1644 244 1644 C244 1664.13 244 1684.26 244 1705 C223.87 1705 203.74 1705 183 1705 C183 1724.8 183 1744.6 183 1765 C163.86 1765 144.72 1765 125 1765 C125 1786.12 125 1807.24 125 1829 C83.75 1829 42.5 1829 0 1829 C0 1848.14 0 1867.28 0 1887 C-38.61 1887 -77.22 1887 -117 1887 C-117 1906.8 -117 1926.6 -117 1947 C-158.25 1947 -199.5 1947 -242 1947 C-242 1967.46 -242 1987.92 -242 2009 C-302.06 2009 -362.12 2009 -424 2009 C-424 2029.79 -424 2050.58 -424 2072 C-545.44 2072 -666.88 2072 -792 2072 C-792 2051.21 -792 2030.42 -792 2009 C-851.73 2009 -911.46 2009 -973 2009 C-973 1988.54 -973 1968.08 -973 1947 C-1013.59 1947 -1054.18 1947 -1096 1947 C-1096 1927.2 -1096 1907.4 -1096 1887 C-1135.6 1887 -1175.2 1887 -1216 1887 C-1216 1867.86 -1216 1848.72 -1216 1829 C-1256.92 1829 -1297.84 1829 -1340 1829 C-1340 1807.88 -1340 1786.76 -1340 1765 C-1360.13 1765 -1380.26 1765 -1401 1765 C-1401 1745.2 -1401 1725.4 -1401 1705 C-1420.47 1705 -1439.94 1705 -1460 1705 C-1460 1684.87 -1460 1664.74 -1460 1644 C-1480.46 1644 -1500.92 1644 -1522 1644 C-1522 1604.07 -1522 1564.14 -1522 1523 C-1542.13 1523 -1562.26 1523 -1583 1523 C-1583 1502.21 -1583 1481.42 -1583 1460 C-1603.46 1460 -1623.92 1460 -1645 1460 C-1645 1400.6 -1645 1341.2 -1645 1280 C-1624.54 1280 -1604.08 1280 -1583 1280 C-1583 1299.8 -1583 1319.6 -1583 1340 C-1562.87 1340 -1542.74 1340 -1522 1340 C-1522 1379.6 -1522 1419.2 -1522 1460 C-1501.54 1460 -1481.08 1460 -1460 1460 C-1460 1480.79 -1460 1501.58 -1460 1523 C-1440.53 1523 -1421.06 1523 -1401 1523 C-1401 1543.46 -1401 1563.92 -1401 1585 C-1361.07 1585 -1321.14 1585 -1280 1585 C-1280 1604.47 -1280 1623.94 -1280 1644 C-1240.07 1644 -1200.14 1644 -1159 1644 C-1159 1664.13 -1159 1684.26 -1159 1705 C-1117.75 1705 -1076.5 1705 -1034 1705 C-1034 1724.8 -1034 1744.6 -1034 1765 C-994.07 1765 -954.14 1765 -913 1765 C-913 1786.12 -913 1807.24 -913 1829 C-893.2 1829 -873.4 1829 -853 1829 C-853 1807.88 -853 1786.76 -853 1765 C-812.08 1765 -771.16 1765 -729 1765 C-729 1745.2 -729 1725.4 -729 1705 C-628.35 1705 -527.7 1705 -424 1705 C-424 1684.87 -424 1664.74 -424 1644 C-363.94 1644 -303.88 1644 -242 1644 C-242 1624.53 -242 1605.06 -242 1585 C-221.54 1585 -201.08 1585 -180 1585 C-180 1564.54 -180 1544.08 -180 1523 C-159.21 1523 -138.42 1523 -117 1523 C-117 1502.21 -117 1481.42 -117 1460 C-98.85 1460 -80.7 1460 -62 1460 C-62 1440.2 -62 1420.4 -62 1400 C-41.54 1400 -21.08 1400 0 1400 C0 1380.2 0 1360.4 0 1340 C20.79 1340 41.58 1340 63 1340 C63 1299.41 63 1258.82 63 1217 C83.46 1217 103.92 1217 125 1217 C125 1176.74 125 1136.48 125 1095 C144.14 1095 163.28 1095 183 1095 C183 1034.28 183 973.56 183 911 C122.61 911 62.22 911 0 911 C0 890.87 0 870.74 0 850 C60.39 850 120.78 850 183 850 C183 689.62 183 529.24 183 364 C163.86 364 144.72 364 125 364 C125 303.61 125 243.22 125 181 C104.54 181 84.08 181 63 181 C63 160.87 63 140.74 63 120 C42.21 120 21.42 120 0 120 C0 80.4 0 40.8 0 0 Z " fill="#C06C73" transform="translate(1807,266)"/>
<path d="M0 0 C19.14 0 38.28 0 58 0 C58 20.46 58 40.92 58 62 C78.46 62 98.92 62 120 62 C120 101.93 120 141.86 120 183 C140.13 183 160.26 183 181 183 C181 163.2 181 143.4 181 123 C201.46 123 221.92 123 243 123 C243 102.87 243 82.74 243 62 C262.47 62 281.94 62 302 62 C302 41.54 302 21.08 302 0 C383.84 0 465.68 0 550 0 C550 20.46 550 40.92 550 62 C568.15 62 586.3 62 605 62 C605 82.13 605 102.26 605 123 C625.46 123 645.92 123 667 123 C667 142.8 667 162.6 667 183 C687.79 183 708.58 183 730 183 C730 222.93 730 262.86 730 304 C709.21 304 688.42 304 667 304 C667 324.13 667 344.26 667 365 C727.39 365 787.78 365 850 365 C850 425.72 850 486.44 850 549 C830.86 549 811.72 549 792 549 C792 589.26 792 629.52 792 671 C771.54 671 751.08 671 730 671 C730 711.59 730 752.18 730 794 C709.21 794 688.42 794 667 794 C667 813.8 667 833.6 667 854 C646.54 854 626.08 854 605 854 C605 873.8 605 893.6 605 914 C586.85 914 568.7 914 550 914 C550 934.79 550 955.58 550 977 C529.21 977 508.42 977 487 977 C487 997.46 487 1017.92 487 1039 C466.54 1039 446.08 1039 425 1039 C425 1058.47 425 1077.94 425 1098 C364.94 1098 304.88 1098 243 1098 C243 1118.13 243 1138.26 243 1159 C142.35 1159 41.7 1159 -62 1159 C-62 1178.8 -62 1198.6 -62 1219 C-102.92 1219 -143.84 1219 -186 1219 C-186 1199.2 -186 1179.4 -186 1159 C-165.87 1159 -145.74 1159 -125 1159 C-125 1138.87 -125 1118.74 -125 1098 C-145.13 1098 -165.26 1098 -186 1098 C-186 1078.53 -186 1059.06 -186 1039 C-145.08 1039 -104.16 1039 -62 1039 C-62 1058.47 -62 1077.94 -62 1098 C18.19 1098 98.38 1098 181 1098 C181 1078.53 181 1059.06 181 1039 C220.93 1039 260.86 1039 302 1039 C302 1018.54 302 998.08 302 977 C322.13 977 342.26 977 363 977 C363 936.41 363 895.82 363 854 C383.46 854 403.92 854 425 854 C425 834.2 425 814.4 425 794 C384.41 794 343.82 794 302 794 C302 813.8 302 833.6 302 854 C262.07 854 222.14 854 181 854 C181 873.8 181 893.6 181 914 C100.81 914 20.62 914 -62 914 C-62 894.2 -62 874.4 -62 854 C-102.92 854 -143.84 854 -186 854 C-186 834.2 -186 814.4 -186 794 C-165.87 794 -145.74 794 -125 794 C-125 774.2 -125 754.4 -125 734 C-83.75 734 -42.5 734 0 734 C0 753.8 0 773.6 0 794 C39.6 794 79.2 794 120 794 C120 774.2 120 754.4 120 734 C140.13 734 160.26 734 181 734 C181 713.21 181 692.42 181 671 C100.81 671 20.62 671 -62 671 C-62 630.74 -62 590.48 -62 549 C-41.54 549 -21.08 549 0 549 C0 488.28 0 427.56 0 365 C19.14 365 38.28 365 58 365 C58 285.14 58 205.28 58 123 C38.86 123 19.72 123 0 123 C0 82.41 0 41.82 0 0 Z " fill="#F2848F" transform="translate(1140,812)"/>
<path d="M0 0 C19.14 0 38.28 0 58 0 C58 60.39 58 120.78 58 183 C78.79 183 99.58 183 121 183 C121 303.78 121 424.56 121 549 C100.21 549 79.42 549 58 549 C58 610.05 58 671.1 58 734 C38.86 734 19.72 734 0 734 C0 793.4 0 852.8 0 914 C-20.46 914 -40.92 914 -62 914 C-62 934.79 -62 955.58 -62 977 C-81.8 977 -101.6 977 -122 977 C-122 1016.93 -122 1056.86 -122 1098 C-142.79 1098 -163.58 1098 -185 1098 C-185 1118.13 -185 1138.26 -185 1159 C-205.13 1159 -225.26 1159 -246 1159 C-246 1178.8 -246 1198.6 -246 1219 C-265.14 1219 -284.28 1219 -304 1219 C-304 1240.12 -304 1261.24 -304 1283 C-345.25 1283 -386.5 1283 -429 1283 C-429 1302.14 -429 1321.28 -429 1341 C-467.61 1341 -506.22 1341 -546 1341 C-546 1360.8 -546 1380.6 -546 1401 C-587.25 1401 -628.5 1401 -671 1401 C-671 1421.46 -671 1441.92 -671 1463 C-731.06 1463 -791.12 1463 -853 1463 C-853 1483.79 -853 1504.58 -853 1526 C-974.44 1526 -1095.88 1526 -1221 1526 C-1221 1505.21 -1221 1484.42 -1221 1463 C-1280.73 1463 -1340.46 1463 -1402 1463 C-1402 1442.54 -1402 1422.08 -1402 1401 C-1220.83 1401 -1039.66 1401 -853 1401 C-853 1381.2 -853 1361.4 -853 1341 C-792.94 1341 -732.88 1341 -671 1341 C-671 1321.86 -671 1302.72 -671 1283 C-629.75 1283 -588.5 1283 -546 1283 C-546 1242.08 -546 1201.16 -546 1159 C-507.39 1159 -468.78 1159 -429 1159 C-429 1138.87 -429 1118.74 -429 1098 C-408.21 1098 -387.42 1098 -366 1098 C-366 1078.53 -366 1059.06 -366 1039 C-345.54 1039 -325.08 1039 -304 1039 C-304 1018.54 -304 998.08 -304 977 C-284.86 977 -265.72 977 -246 977 C-246 956.21 -246 935.42 -246 914 C-225.87 914 -205.74 914 -185 914 C-185 854.6 -185 795.2 -185 734 C-164.21 734 -143.42 734 -122 734 C-122 653.48 -122 572.96 -122 490 C-102.2 490 -82.4 490 -62 490 C-62 529.6 -62 569.2 -62 610 C-41.54 610 -21.08 610 0 610 C0 408.7 0 207.4 0 0 Z " fill="#A15A60" transform="translate(2236,812)"/>
<path d="M0 0 C20.13 0 40.26 0 61 0 C61 41.25 61 82.5 61 125 C81.79 125 102.58 125 124 125 C124 205.52 124 286.04 124 369 C103.21 369 82.42 369 61 369 C61 428.4 61 487.8 61 549 C40.87 549 20.74 549 0 549 C0 569.79 0 590.58 0 612 C-19.14 612 -38.28 612 -58 612 C-58 632.46 -58 652.92 -58 674 C-78.46 674 -98.92 674 -120 674 C-120 693.47 -120 712.94 -120 733 C-140.79 733 -161.58 733 -183 733 C-183 753.13 -183 773.26 -183 794 C-221.61 794 -260.22 794 -300 794 C-300 834.92 -300 875.84 -300 918 C-381.84 918 -463.68 918 -548 918 C-548 896.88 -548 875.76 -548 854 C-668.12 854 -788.24 854 -912 854 C-912 834.2 -912 814.4 -912 794 C-811.35 794 -710.7 794 -607 794 C-607 773.87 -607 753.74 -607 733 C-546.94 733 -486.88 733 -425 733 C-425 713.53 -425 694.06 -425 674 C-404.54 674 -384.08 674 -363 674 C-363 653.54 -363 633.08 -363 612 C-342.21 612 -321.42 612 -300 612 C-300 591.21 -300 570.42 -300 549 C-281.85 549 -263.7 549 -245 549 C-245 529.2 -245 509.4 -245 489 C-224.54 489 -204.08 489 -183 489 C-183 469.2 -183 449.4 -183 429 C-162.21 429 -141.42 429 -120 429 C-120 388.41 -120 347.82 -120 306 C-99.54 306 -79.08 306 -58 306 C-58 265.74 -58 225.48 -58 184 C-38.86 184 -19.72 184 0 184 C0 123.28 0 62.56 0 0 Z " fill="#C16C73" transform="translate(1990,1177)"/>
<path d="M0 0 C80.19 0 160.38 0 243 0 C243 20.46 243 40.92 243 62 C263.13 62 283.26 62 304 62 C304 82.13 304 102.26 304 123 C324.79 123 345.58 123 367 123 C367 142.8 367 162.6 367 183 C387.46 183 407.92 183 429 183 C429 243.06 429 303.12 429 365 C387.75 365 346.5 365 304 365 C304 406.25 304 447.5 304 490 C224.14 490 144.28 490 62 490 C62 469.87 62 449.74 62 429 C41.54 429 21.08 429 0 429 C0 407.88 0 386.76 0 365 C-39.6 365 -79.2 365 -120 365 C-120 344.87 -120 324.74 -120 304 C-141.12 304 -162.24 304 -184 304 C-184 264.07 -184 224.14 -184 183 C-162.88 183 -141.76 183 -120 183 C-120 163.2 -120 143.4 -120 123 C-101.19 123 -82.38 123 -63 123 C-63 102.87 -63 82.74 -63 62 C-42.21 62 -21.42 62 0 62 C0 41.54 0 21.08 0 0 Z " fill="#85C8C7" transform="translate(711,812)"/>
<path d="M0 0 C81.84 0 163.68 0 248 0 C248 20.46 248 40.92 248 62 C266.15 62 284.3 62 303 62 C303 82.13 303 102.26 303 123 C323.46 123 343.92 123 365 123 C365 142.8 365 162.6 365 183 C385.79 183 406.58 183 428 183 C428 222.93 428 262.86 428 304 C407.21 304 386.42 304 365 304 C365 324.13 365 344.26 365 365 C326.39 365 287.78 365 248 365 C248 344.87 248 324.74 248 304 C227.21 304 206.42 304 185 304 C185 324.13 185 344.26 185 365 C164.54 365 144.08 365 123 365 C123 386.12 123 407.24 123 429 C82.41 429 41.82 429 0 429 C0 387.75 0 346.5 0 304 C-39.93 304 -79.86 304 -121 304 C-121 324.13 -121 344.26 -121 365 C-141.13 365 -161.26 365 -182 365 C-182 304.94 -182 244.88 -182 183 C-161.87 183 -141.74 183 -121 183 C-121 163.2 -121 143.4 -121 123 C-100.54 123 -80.08 123 -59 123 C-59 102.87 -59 82.74 -59 62 C-39.53 62 -20.06 62 0 62 C0 41.54 0 21.08 0 0 Z " fill="#85C8C7" transform="translate(1442,812)"/>
<path d="M0 0 C19.14 0 38.28 0 58 0 C58 20.46 58 40.92 58 62 C78.46 62 98.92 62 120 62 C120 161.99 120 261.98 120 365 C140.13 365 160.26 365 181 365 C181 344.87 181 324.74 181 304 C220.93 304 260.86 304 302 304 C302 365.38 302 426.76 302 490 C383.84 490 465.68 490 550 490 C550 529.6 550 569.2 550 610 C529.21 610 508.42 610 487 610 C487 589.87 487 569.74 487 549 C425.95 549 364.9 549 302 549 C302 589.26 302 629.52 302 671 C282.53 671 263.06 671 243 671 C243 630.74 243 590.48 243 549 C222.54 549 202.08 549 181 549 C181 589.26 181 629.52 181 671 C100.81 671 20.62 671 -62 671 C-62 630.74 -62 590.48 -62 549 C-41.54 549 -21.08 549 0 549 C0 488.28 0 427.56 0 365 C19.14 365 38.28 365 58 365 C58 285.14 58 205.28 58 123 C38.86 123 19.72 123 0 123 C0 82.41 0 41.82 0 0 Z " fill="#F4918B" transform="translate(1140,812)"/>
<path d="M0 0 C80.52 0 161.04 0 244 0 C244 21.12 244 42.24 244 64 C262.81 64 281.62 64 301 64 C301 84.13 301 104.26 301 125 C321.79 125 342.58 125 364 125 C364 225.32 364 325.64 364 429 C343.21 429 322.42 429 301 429 C301 409.2 301 389.4 301 369 C282.19 369 263.38 369 244 369 C244 328.08 244 287.16 244 245 C182.95 245 121.9 245 59 245 C59 265.13 59 285.26 59 306 C39.53 306 20.06 306 0 306 C0 326.79 0 347.58 0 369 C-20.46 369 -40.92 369 -62 369 C-62 288.48 -62 207.96 -62 125 C-41.54 125 -21.08 125 0 125 C0 83.75 0 42.5 0 0 Z " fill="#FBAEAE" transform="translate(347,1177)"/>
<path d="M0 0 C20.79 0 41.58 0 63 0 C63 20.13 63 40.26 63 61 C162 61 261 61 363 61 C363 121.72 363 182.44 363 245 C302.61 245 242.22 245 180 245 C180 306.05 180 367.1 180 430 C159.54 430 139.08 430 118 430 C118 449.8 118 469.6 118 490 C99.85 490 81.7 490 63 490 C63 389.68 63 289.36 63 186 C-18.84 186 -100.68 186 -185 186 C-185 165.87 -185 145.74 -185 125 C-144.41 125 -103.82 125 -62 125 C-62 103.88 -62 82.76 -62 61 C-41.54 61 -21.08 61 0 61 C0 40.87 0 20.74 0 0 Z " fill="#FBAEAE" transform="translate(1627,1116)"/>
<path d="M0 0 C40.59 0 81.18 0 123 0 C123 19.8 123 39.6 123 60 C102.54 60 82.08 60 61 60 C61 100.59 61 141.18 61 183 C40.87 183 20.74 183 0 183 C0 203.46 0 223.92 0 245 C-39.93 245 -79.86 245 -121 245 C-121 264.47 -121 283.94 -121 304 C-201.19 304 -281.38 304 -364 304 C-364 284.53 -364 265.06 -364 245 C-404.92 245 -445.84 245 -488 245 C-488 183.95 -488 122.9 -488 60 C-447.08 60 -406.16 60 -364 60 C-364 79.8 -364 99.6 -364 120 C-283.81 120 -203.62 120 -121 120 C-121 100.2 -121 80.4 -121 60 C-81.07 60 -41.14 60 0 60 C0 40.2 0 20.4 0 0 Z " fill="#FB9D60" transform="translate(1442,1606)"/>
<path d="M0 0 C59.4 0 118.8 0 180 0 C180 39.27 180 78.54 180 119 C200.46 119 220.92 119 242 119 C242 159.26 242 199.52 242 241 C262.79 241 283.58 241 305 241 C305 281.26 305 321.52 305 363 C284.21 363 263.42 363 242 363 C242 342.54 242 322.08 242 301 C221.54 301 201.08 301 180 301 C180 281.2 180 261.4 180 241 C161.85 241 143.7 241 125 241 C125 221.2 125 201.4 125 181 C63.29 181 1.58 181 -62 181 C-62 200.8 -62 220.6 -62 241 C-82.13 241 -102.26 241 -123 241 C-123 260.8 -123 280.6 -123 301 C-162.93 301 -202.86 301 -244 301 C-244 261.4 -244 221.8 -244 181 C-204.07 181 -164.14 181 -123 181 C-123 160.54 -123 140.08 -123 119 C-102.87 119 -82.74 119 -62 119 C-62 98.21 -62 77.42 -62 56 C-41.54 56 -21.08 56 0 56 C0 37.52 0 19.04 0 0 Z " fill="#FCBAB5" transform="translate(1565,511)"/>
<path d="M0 0 C81.84 0 163.68 0 248 0 C248 20.46 248 40.92 248 62 C266.15 62 284.3 62 303 62 C303 82.13 303 102.26 303 123 C323.46 123 343.92 123 365 123 C365 142.8 365 162.6 365 183 C385.79 183 406.58 183 428 183 C428 204.12 428 225.24 428 247 C386.75 247 345.5 247 303 247 C303 225.88 303 204.76 303 183 C183.54 183 64.08 183 -59 183 C-59 204.12 -59 225.24 -59 247 C-99.59 247 -140.18 247 -182 247 C-182 225.88 -182 204.76 -182 183 C-161.87 183 -141.74 183 -121 183 C-121 163.2 -121 143.4 -121 123 C-100.54 123 -80.08 123 -59 123 C-59 102.87 -59 82.74 -59 62 C-39.53 62 -20.06 62 0 62 C0 41.54 0 21.08 0 0 Z " fill="#9DD3D6" transform="translate(1442,812)"/>
<path d="M0 0 C80.19 0 160.38 0 243 0 C243 20.46 243 40.92 243 62 C263.13 62 283.26 62 304 62 C304 82.13 304 102.26 304 123 C324.79 123 345.58 123 367 123 C367 142.8 367 162.6 367 183 C387.46 183 407.92 183 429 183 C429 204.12 429 225.24 429 247 C387.75 247 346.5 247 304 247 C304 225.88 304 204.76 304 183 C182.89 183 61.78 183 -63 183 C-63 204.12 -63 225.24 -63 247 C-102.93 247 -142.86 247 -184 247 C-184 225.88 -184 204.76 -184 183 C-162.88 183 -141.76 183 -120 183 C-120 163.2 -120 143.4 -120 123 C-101.19 123 -82.38 123 -63 123 C-63 102.87 -63 82.74 -63 62 C-42.21 62 -21.42 62 0 62 C0 41.54 0 21.08 0 0 Z " fill="#9DD3D6" transform="translate(711,812)"/>
<path d="M0 0 C61.38 0 122.76 0 186 0 C186 18.48 186 36.96 186 56 C205.8 56 225.6 56 246 56 C246 76.79 246 97.58 246 119 C265.8 119 285.6 119 306 119 C306 139.46 306 159.92 306 181 C346.92 181 387.84 181 430 181 C430 220.6 430 260.2 430 301 C409.21 301 388.42 301 367 301 C367 281.2 367 261.4 367 241 C327.07 241 287.14 241 246 241 C246 221.2 246 201.4 246 181 C185.61 181 125.22 181 63 181 C63 200.8 63 220.6 63 241 C42.21 241 21.42 241 0 241 C0 260.8 0 280.6 0 301 C-18.81 301 -37.62 301 -57 301 C-57 321.46 -57 341.92 -57 363 C-78.12 363 -99.24 363 -121 363 C-121 322.74 -121 282.48 -121 241 C-99.88 241 -78.76 241 -57 241 C-57 200.74 -57 160.48 -57 119 C-38.19 119 -19.38 119 0 119 C0 79.73 0 40.46 0 0 Z " fill="#FAB7B1" transform="translate(648,511)"/>
<path d="M0 0 C39.6 0 79.2 0 120 0 C120 21.12 120 42.24 120 64 C140.46 64 160.92 64 182 64 C182 84.13 182 104.26 182 125 C261.86 125 341.72 125 424 125 C424 83.75 424 42.5 424 0 C465.25 0 506.5 0 549 0 C549 60.72 549 121.44 549 184 C507.75 184 466.5 184 424 184 C424 224.26 424 264.52 424 306 C403.87 306 383.74 306 363 306 C363 265.74 363 225.48 363 184 C303.27 184 243.54 184 182 184 C182 204.13 182 224.26 182 245 C161.54 245 141.08 245 120 245 C120 205.4 120 165.8 120 125 C99.21 125 78.42 125 57 125 C57 104.87 57 84.74 57 64 C38.19 64 19.38 64 0 64 C0 42.88 0 21.76 0 0 Z " fill="#F59890" transform="translate(591,1177)"/>
<path d="M0 0 C81.18 0 162.36 0 246 0 C246 20.13 246 40.26 246 61 C265.8 61 285.6 61 306 61 C306 82.12 306 103.24 306 125 C326.13 125 346.26 125 367 125 C367 143.48 367 161.96 367 181 C387.79 181 408.58 181 430 181 C430 222.25 430 263.5 430 306 C389.08 306 348.16 306 306 306 C306 285.54 306 265.08 306 244 C286.2 244 266.4 244 246 244 C246 223.21 246 202.42 246 181 C226.2 181 206.4 181 186 181 C186 162.52 186 144.04 186 125 C124.62 125 63.24 125 0 125 C0 83.75 0 42.5 0 0 Z " fill="#52A19F" transform="translate(648,386)"/>
<path d="M0 0 C79.86 0 159.72 0 242 0 C242 41.25 242 82.5 242 125 C182.6 125 123.2 125 62 125 C62 143.48 62 161.96 62 181 C41.54 181 21.08 181 0 181 C0 201.79 0 222.58 0 244 C-20.13 244 -40.26 244 -61 244 C-61 264.46 -61 284.92 -61 306 C-100.93 306 -140.86 306 -182 306 C-182 264.75 -182 223.5 -182 181 C-161.54 181 -141.08 181 -120 181 C-120 162.52 -120 144.04 -120 125 C-100.53 125 -81.06 125 -61 125 C-61 103.88 -61 82.76 -61 61 C-40.87 61 -20.74 61 0 61 C0 40.87 0 20.74 0 0 Z " fill="#52A19F" transform="translate(1503,386)"/>
<path d="M0 0 C19.14 0 38.28 0 58 0 C58 20.46 58 40.92 58 62 C78.46 62 98.92 62 120 62 C120 242.84 120 423.68 120 610 C80.4 610 40.8 610 0 610 C0 630.13 0 650.26 0 671 C-20.46 671 -40.92 671 -62 671 C-62 630.74 -62 590.48 -62 549 C-41.54 549 -21.08 549 0 549 C0 488.28 0 427.56 0 365 C19.14 365 38.28 365 58 365 C58 285.14 58 205.28 58 123 C38.86 123 19.72 123 0 123 C0 82.41 0 41.82 0 0 Z " fill="#F7B28E" transform="translate(1140,812)"/>
<path d="M0 0 C60.39 0 120.78 0 183 0 C183 19.8 183 39.6 183 60 C222.93 60 262.86 60 304 60 C304 79.8 304 99.6 304 120 C324.79 120 345.58 120 367 120 C367 160.59 367 201.18 367 243 C346.21 243 325.42 243 304 243 C304 222.87 304 202.74 304 182 C283.87 182 263.74 182 243 182 C243 161.54 243 141.08 243 120 C162.81 120 82.62 120 0 120 C0 140.46 0 160.92 0 182 C-20.79 182 -41.58 182 -63 182 C-63 202.13 -63 222.26 -63 243 C-102.93 243 -142.86 243 -184 243 C-184 222.87 -184 202.74 -184 182 C-162.88 182 -141.76 182 -120 182 C-120 161.54 -120 141.08 -120 120 C-101.19 120 -82.38 120 -63 120 C-63 100.2 -63 80.4 -63 60 C-42.21 60 -21.42 60 0 60 C0 40.2 0 20.4 0 0 Z " fill="#F6A090" transform="translate(711,692)"/>
<path d="M0 0 C41.25 0 82.5 0 125 0 C125 19.8 125 39.6 125 60 C164.6 60 204.2 60 245 60 C245 40.2 245 20.4 245 0 C285.59 0 326.18 0 368 0 C368 19.8 368 39.6 368 60 C387.47 60 406.94 60 427 60 C427 79.8 427 99.6 427 120 C387.07 120 347.14 120 306 120 C306 139.8 306 159.6 306 180 C225.81 180 145.62 180 63 180 C63 160.2 63 140.4 63 120 C22.08 120 -18.84 120 -61 120 C-61 100.2 -61 80.4 -61 60 C-40.87 60 -20.74 60 0 60 C0 40.2 0 20.4 0 0 Z " fill="#F8C6B1" transform="translate(1015,1546)"/>
<path d="M0 0 C20.46 0 40.92 0 62 0 C62 20.13 62 40.26 62 61 C101.93 61 141.86 61 183 61 C183 40.87 183 20.74 183 0 C243.72 0 304.44 0 367 0 C367 20.13 367 40.26 367 61 C346.21 61 325.42 61 304 61 C304 102.25 304 143.5 304 186 C224.14 186 144.28 186 62 186 C62 165.87 62 145.74 62 125 C41.54 125 21.08 125 0 125 C0 83.75 0 42.5 0 0 Z " fill="#F8C7B2" transform="translate(711,1116)"/>
<path d="M0 0 C40.92 0 81.84 0 124 0 C124 19.47 124 38.94 124 59 C204.19 59 284.38 59 367 59 C367 39.53 367 20.06 367 0 C406.93 0 446.86 0 488 0 C488 19.47 488 38.94 488 59 C468.53 59 449.06 59 429 59 C429 79.13 429 99.26 429 120 C328.35 120 227.7 120 124 120 C124 139.8 124 159.6 124 180 C83.08 180 42.16 180 0 180 C0 160.2 0 140.4 0 120 C20.13 120 40.26 120 61 120 C61 99.87 61 79.74 61 59 C40.87 59 20.74 59 0 59 C0 39.53 0 20.06 0 0 Z " fill="#FAACAD" transform="translate(954,1851)"/>
<path d="M0 0 C19.14 0 38.28 0 58 0 C58 19.8 58 39.6 58 60 C78.46 60 98.92 60 120 60 C120 40.2 120 20.4 120 0 C140.13 0 160.26 0 181 0 C181 39.6 181 79.2 181 120 C220.93 120 260.86 120 302 120 C302 140.46 302 160.92 302 182 C282.53 182 263.06 182 243 182 C243 202.13 243 222.26 243 243 C222.54 243 202.08 243 181 243 C181 262.8 181 282.6 181 303 C160.87 303 140.74 303 120 303 C120 263.07 120 223.14 120 182 C99.54 182 79.08 182 58 182 C58 161.54 58 141.08 58 120 C38.86 120 19.72 120 0 120 C0 80.4 0 40.8 0 0 Z " fill="#F5998F" transform="translate(1140,692)"/>
<path d="M0 0 C61.71 0 123.42 0 187 0 C187 19.8 187 39.6 187 60 C205.15 60 223.3 60 242 60 C242 79.8 242 99.6 242 120 C262.46 120 282.92 120 304 120 C304 140.46 304 160.92 304 182 C324.79 182 345.58 182 367 182 C367 202.13 367 222.26 367 243 C325.75 243 284.5 243 242 243 C242 222.87 242 202.74 242 182 C223.85 182 205.7 182 187 182 C187 161.54 187 141.08 187 120 C105.16 120 23.32 120 -61 120 C-61 100.2 -61 80.4 -61 60 C-40.87 60 -20.74 60 0 60 C0 40.2 0 20.4 0 0 Z " fill="#F79F8F" transform="translate(1503,692)"/>
<path d="M0 0 C40.92 0 81.84 0 124 0 C124 19.8 124 39.6 124 60 C204.19 60 284.38 60 367 60 C367 80.79 367 101.58 367 123 C286.81 123 206.62 123 124 123 C124 143.46 124 163.92 124 185 C83.08 185 42.16 185 0 185 C0 123.95 0 62.9 0 0 Z " fill="#FB9D60" transform="translate(954,1666)"/>
<path d="M0 0 C20.13 0 40.26 0 61 0 C61 41.25 61 82.5 61 125 C81.79 125 102.58 125 124 125 C124 205.52 124 286.04 124 369 C103.21 369 82.42 369 61 369 C61 348.21 61 327.42 61 306 C40.87 306 20.74 306 0 306 C0 285.87 0 265.74 0 245 C-19.14 245 -38.28 245 -58 245 C-58 224.87 -58 204.74 -58 184 C-38.86 184 -19.72 184 0 184 C0 123.28 0 62.56 0 0 Z " fill="#C47C7E" transform="translate(1990,1177)"/>
<path d="M0 0 C81.84 0 163.68 0 248 0 C248 20.46 248 40.92 248 62 C266.15 62 284.3 62 303 62 C303 82.13 303 102.26 303 123 C183.54 123 64.08 123 -59 123 C-59 102.87 -59 82.74 -59 62 C-39.53 62 -20.06 62 0 62 C0 41.54 0 21.08 0 0 Z " fill="#C1E5F1" transform="translate(1442,812)"/>
<path d="M0 0 C80.19 0 160.38 0 243 0 C243 20.46 243 40.92 243 62 C263.13 62 283.26 62 304 62 C304 82.13 304 102.26 304 123 C182.89 123 61.78 123 -63 123 C-63 102.87 -63 82.74 -63 62 C-42.21 62 -21.42 62 0 62 C0 41.54 0 21.08 0 0 Z " fill="#C1E5F1" transform="translate(711,812)"/>
<path d="M0 0 C39.6 0 79.2 0 120 0 C120 21.12 120 42.24 120 64 C140.46 64 160.92 64 182 64 C182 84.13 182 104.26 182 125 C241.73 125 301.46 125 363 125 C363 144.47 363 163.94 363 184 C303.27 184 243.54 184 182 184 C182 204.13 182 224.26 182 245 C161.54 245 141.08 245 120 245 C120 205.4 120 165.8 120 125 C99.21 125 78.42 125 57 125 C57 104.87 57 84.74 57 64 C38.19 64 19.38 64 0 64 C0 42.88 0 21.76 0 0 Z " fill="#FB9D60" transform="translate(591,1177)"/>
<path d="M0 0 C20.46 0 40.92 0 62 0 C62 80.19 62 160.38 62 243 C81.14 243 100.28 243 120 243 C120 322.86 120 402.72 120 485 C100.86 485 81.72 485 62 485 C62 424.94 62 364.88 62 303 C41.54 303 21.08 303 0 303 C0 203.01 0 103.02 0 0 Z " fill="#E06764" transform="translate(1078,692)"/>
<path d="M0 0 C20.79 0 41.58 0 63 0 C63 61.38 63 122.76 63 186 C-18.84 186 -100.68 186 -185 186 C-185 165.87 -185 145.74 -185 125 C-144.41 125 -103.82 125 -62 125 C-62 103.88 -62 82.76 -62 61 C-41.54 61 -21.08 61 0 61 C0 40.87 0 20.74 0 0 Z " fill="#F8C7B2" transform="translate(1627,1116)"/>
<path d="M0 0 C80.52 0 161.04 0 244 0 C244 20.13 244 40.26 244 61 C182.95 61 121.9 61 59 61 C59 81.13 59 101.26 59 122 C39.53 122 20.06 122 0 122 C0 142.79 0 163.58 0 185 C-20.46 185 -40.92 185 -62 185 C-62 144.08 -62 103.16 -62 61 C-41.54 61 -21.08 61 0 61 C0 40.87 0 20.74 0 0 Z " fill="#F79A9F" transform="translate(347,1361)"/>
<path d="M0 0 C19.47 0 38.94 0 59 0 C59 39.93 59 79.86 59 121 C-61.12 121 -181.24 121 -305 121 C-305 101.2 -305 81.4 -305 61 C-204.35 61 -103.7 61 0 61 C0 40.87 0 20.74 0 0 Z " fill="#CE8083" transform="translate(1383,1910)"/>
<path d="M0 0 C80.19 0 160.38 0 243 0 C243 20.79 243 41.58 243 63 C222.87 63 202.74 63 182 63 C182 82.8 182 102.6 182 123 C142.4 123 102.8 123 62 123 C62 103.2 62 83.4 62 63 C41.54 63 21.08 63 0 63 C0 42.21 0 21.42 0 0 Z " fill="#E16764" transform="translate(1078,1483)"/>
<path d="M0 0 C60.72 0 121.44 0 184 0 C184 20.13 184 40.26 184 61 C163.21 61 142.42 61 121 61 C121 102.25 121 143.5 121 186 C100.87 186 80.74 186 60 186 C60 144.75 60 103.5 60 61 C40.2 61 20.4 61 0 61 C0 40.87 0 20.74 0 0 Z " fill="#F8C7B2" transform="translate(894,1116)"/>
<path d="M0 0 C20.13 0 40.26 0 61 0 C61 41.25 61 82.5 61 125 C81.79 125 102.58 125 124 125 C124 164.6 124 204.2 124 245 C103.21 245 82.42 245 61 245 C61 224.87 61 204.74 61 184 C40.87 184 20.74 184 0 184 C0 123.28 0 62.56 0 0 Z " fill="#C78A8A" transform="translate(1990,1177)"/>
<path d="M0 0 C81.84 0 163.68 0 248 0 C248 39.6 248 79.2 248 120 C227.21 120 206.42 120 185 120 C185 99.87 185 79.74 185 59 C123.95 59 62.9 59 0 59 C0 39.53 0 20.06 0 0 Z " fill="#FB9D60" transform="translate(1442,1302)"/>
<path d="M0 0 C59.73 0 119.46 0 181 0 C181 39.6 181 79.2 181 120 C141.4 120 101.8 120 61 120 C61 100.2 61 80.4 61 60 C40.87 60 20.74 60 0 60 C0 40.2 0 20.4 0 0 Z " fill="#F8AA77" transform="translate(773,1606)"/>
<path d="M0 0 C80.19 0 160.38 0 243 0 C243 20.79 243 41.58 243 63 C162.81 63 82.62 63 0 63 C0 42.21 0 21.42 0 0 Z " fill="#EB5D46" transform="translate(1078,1726)"/>
<path d="M0 0 C60.06 0 120.12 0 182 0 C182 20.13 182 40.26 182 61 C142.4 61 102.8 61 62 61 C62 81.13 62 101.26 62 122 C41.54 122 21.08 122 0 122 C0 81.74 0 41.48 0 0 Z " fill="#FDDCCD" transform="translate(1078,1361)"/>
<path d="M0 0 C80.52 0 161.04 0 244 0 C244 20.13 244 40.26 244 61 C163.48 61 82.96 61 0 61 C0 40.87 0 20.74 0 0 Z " fill="#E16764" transform="translate(347,1116)"/>
<path d="M0 0 C40.59 0 81.18 0 123 0 C123 19.8 123 39.6 123 60 C102.54 60 82.08 60 61 60 C61 100.59 61 141.18 61 183 C40.87 183 20.74 183 0 183 C0 122.61 0 62.22 0 0 Z " fill="#FB9D60" transform="translate(1442,1606)"/>
<path d="M0 0 C18.81 0 37.62 0 57 0 C57 20.13 57 40.26 57 61 C77.79 61 98.58 61 120 61 C120 101.59 120 142.18 120 184 C99.21 184 78.42 184 57 184 C57 164.2 57 144.4 57 124 C38.19 124 19.38 124 0 124 C0 83.08 0 42.16 0 0 Z " fill="#F79A9F" transform="translate(591,1422)"/>
<path d="M0 0 C20.13 0 40.26 0 61 0 C61 40.26 61 80.52 61 122 C1.27 122 -58.46 122 -120 122 C-120 101.87 -120 81.74 -120 61 C-80.4 61 -40.8 61 0 61 C0 40.87 0 20.74 0 0 Z " fill="#F9B68F" transform="translate(1260,1361)"/>
<path d="M0 0 C20.46 0 40.92 0 62 0 C62 40.92 62 81.84 62 124 C41.54 124 21.08 124 0 124 C0 143.8 0 163.6 0 184 C-18.15 184 -36.3 184 -55 184 C-55 143.41 -55 102.82 -55 61 C-36.85 61 -18.7 61 0 61 C0 40.87 0 20.74 0 0 Z " fill="#F79A9F" transform="translate(1745,1422)"/>
<path d="M0 0 C80.19 0 160.38 0 243 0 C243 19.47 243 38.94 243 59 C162.81 59 82.62 59 0 59 C0 39.53 0 20.06 0 0 Z " fill="#FD8070" transform="translate(1078,1851)"/>
<path d="M0 0 C20.79 0 41.58 0 63 0 C63 41.25 63 82.5 63 125 C22.08 125 -18.84 125 -61 125 C-61 104.54 -61 84.08 -61 63 C-40.87 63 -20.74 63 0 63 C0 42.21 0 21.42 0 0 Z " fill="#358080" transform="translate(1015,567)"/>
<path d="M0 0 C61.71 0 123.42 0 187 0 C187 20.46 187 40.92 187 62 C125.29 62 63.58 62 0 62 C0 41.54 0 21.08 0 0 Z " fill="#F6ACA5" transform="translate(1503,630)"/>
<path d="M0 0 C39.6 0 79.2 0 120 0 C120 41.25 120 82.5 120 125 C99.21 125 78.42 125 57 125 C57 104.87 57 84.74 57 64 C38.19 64 19.38 64 0 64 C0 42.88 0 21.76 0 0 Z " fill="#FB9D60" transform="translate(591,1177)"/>
<path d="M0 0 C59.4 0 118.8 0 180 0 C180 21.12 180 42.24 180 64 C120.6 64 61.2 64 0 64 C0 42.88 0 21.76 0 0 Z " fill="#358080" transform="translate(1565,447)"/>
<path d="M0 0 C20.46 0 40.92 0 62 0 C62 60.72 62 121.44 62 184 C41.54 184 21.08 184 0 184 C0 123.28 0 62.56 0 0 Z " fill="#E16764" transform="translate(1078,1177)"/>
<path d="M0 0 C40.92 0 81.84 0 124 0 C124 39.6 124 79.2 124 120 C103.21 120 82.42 120 61 120 C61 100.2 61 80.4 61 60 C40.87 60 20.74 60 0 60 C0 40.2 0 20.4 0 0 Z " fill="#FCBAB5" transform="translate(954,692)"/>
<path d="M0 0 C60.39 0 120.78 0 183 0 C183 20.13 183 40.26 183 61 C122.61 61 62.22 61 0 61 C0 40.87 0 20.74 0 0 Z " fill="#E16764" transform="translate(1807,1116)"/>
<path d="M0 0 C39.93 0 79.86 0 121 0 C121 41.25 121 82.5 121 125 C101.53 125 82.06 125 62 125 C62 103.88 62 82.76 62 61 C41.54 61 21.08 61 0 61 C0 40.87 0 20.74 0 0 Z " fill="#F8C7B2" transform="translate(1321,1116)"/>
<path d="M0 0 C60.06 0 120.12 0 182 0 C182 19.8 182 39.6 182 60 C121.94 60 61.88 60 0 60 C0 40.2 0 20.4 0 0 Z " fill="#F48B93" transform="translate(1078,1971)"/>
<path d="M0 0 C38.61 0 77.22 0 117 0 C117 21.12 117 42.24 117 64 C96.54 64 76.08 64 55 64 C55 84.13 55 104.26 55 125 C36.85 125 18.7 125 0 125 C0 83.75 0 42.5 0 0 Z " fill="#FB9D60" transform="translate(1690,1177)"/>
<path d="M0 0 C40.59 0 81.18 0 123 0 C123 18.81 123 37.62 123 57 C102.54 57 82.08 57 61 57 C61 77.13 61 97.26 61 118 C40.87 118 20.74 118 0 118 C0 79.06 0 40.12 0 0 Z " fill="#194040" transform="translate(1442,1059)"/>
<path d="M0 0 C40.59 0 81.18 0 123 0 C123 18.81 123 37.62 123 57 C102.54 57 82.08 57 61 57 C61 77.13 61 97.26 61 118 C40.87 118 20.74 118 0 118 C0 79.06 0 40.12 0 0 Z " fill="#85C8C7" transform="translate(1260,1059)"/>
<path d="M0 0 C39.6 0 79.2 0 120 0 C120 18.81 120 37.62 120 57 C100.2 57 80.4 57 60 57 C60 77.13 60 97.26 60 118 C40.2 118 20.4 118 0 118 C0 79.06 0 40.12 0 0 Z " fill="#194040" transform="translate(834,1059)"/>
<path d="M0 0 C41.25 0 82.5 0 125 0 C125 21.12 125 42.24 125 64 C83.75 64 42.5 64 0 64 C0 42.88 0 21.76 0 0 Z " fill="#9DD3D6" transform="translate(1745,995)"/>
<path d="M0 0 C41.25 0 82.5 0 125 0 C125 21.12 125 42.24 125 64 C83.75 64 42.5 64 0 64 C0 42.88 0 21.76 0 0 Z " fill="#9DD3D6" transform="translate(1015,995)"/>
<path d="M0 0 C41.25 0 82.5 0 125 0 C125 21.12 125 42.24 125 64 C83.75 64 42.5 64 0 64 C0 42.88 0 21.76 0 0 Z " fill="#358080" transform="translate(648,447)"/>
<path d="M0 0 C20.79 0 41.58 0 63 0 C63 41.25 63 82.5 63 125 C42.21 125 21.42 125 0 125 C0 83.75 0 42.5 0 0 Z " fill="#B45151" transform="translate(2051,1177)"/>
<path d="M0 0 C20.79 0 41.58 0 63 0 C63 41.25 63 82.5 63 125 C42.21 125 21.42 125 0 125 C0 83.75 0 42.5 0 0 Z " fill="#F58E7D" transform="translate(1015,1177)"/>
<path d="M0 0 C40.59 0 81.18 0 123 0 C123 21.12 123 42.24 123 64 C82.41 64 41.82 64 0 64 C0 42.88 0 21.76 0 0 Z " fill="#57A29F" transform="translate(1442,1177)"/>
<path d="M0 0 C40.59 0 81.18 0 123 0 C123 21.12 123 42.24 123 64 C82.41 64 41.82 64 0 64 C0 42.88 0 21.76 0 0 Z " fill="#9DD3D6" transform="translate(1260,995)"/>
<path d="M0 0 C21.12 0 42.24 0 64 0 C64 40.26 64 80.52 64 122 C42.88 122 21.76 122 0 122 C0 81.74 0 41.48 0 0 Z " fill="#52A19F" transform="translate(527,630)"/>
<path d="M0 0 C20.46 0 40.92 0 62 0 C62 41.25 62 82.5 62 125 C41.54 125 21.08 125 0 125 C0 83.75 0 42.5 0 0 Z " fill="#E16764" transform="translate(285,1177)"/>
<path d="M0 0 C39.93 0 79.86 0 121 0 C121 21.12 121 42.24 121 64 C81.07 64 41.14 64 0 64 C0 42.88 0 21.76 0 0 Z " fill="#9DD3D6" transform="translate(527,995)"/>
<path d="M0 0 C40.92 0 81.84 0 124 0 C124 20.46 124 40.92 124 62 C83.08 62 42.16 62 0 62 C0 41.54 0 21.08 0 0 Z " fill="#FD8070" transform="translate(954,1789)"/>
<path d="M0 0 C20.79 0 41.58 0 63 0 C63 40.26 63 80.52 63 122 C42.21 122 21.42 122 0 122 C0 81.74 0 41.48 0 0 Z " fill="#E16764" transform="translate(1015,1361)"/>
<path d="M0 0 C20.79 0 41.58 0 63 0 C63 40.26 63 80.52 63 122 C42.21 122 21.42 122 0 122 C0 81.74 0 41.48 0 0 Z " fill="#52A19F" transform="translate(1807,630)"/>
<path d="M0 0 C39.6 0 79.2 0 120 0 C120 21.12 120 42.24 120 64 C80.4 64 40.8 64 0 64 C0 42.88 0 21.76 0 0 Z " fill="#57A29F" transform="translate(834,1177)"/>
<path d="M0 0 C41.25 0 82.5 0 125 0 C125 20.13 125 40.26 125 61 C83.75 61 42.5 61 0 61 C0 40.87 0 20.74 0 0 Z " fill="#F79A9F" transform="translate(1807,1361)"/>
<path d="M0 0 C20.46 0 40.92 0 62 0 C62 40.26 62 80.52 62 122 C41.54 122 21.08 122 0 122 C0 81.74 0 41.48 0 0 Z " fill="#E16764" transform="translate(1321,1361)"/>
<path d="M0 0 C40.92 0 81.84 0 124 0 C124 20.13 124 40.26 124 61 C83.08 61 42.16 61 0 61 C0 40.87 0 20.74 0 0 Z " fill="#5CA2A0" transform="translate(1503,1116)"/>
<path d="M0 0 C40.59 0 81.18 0 123 0 C123 20.13 123 40.26 123 61 C82.41 61 41.82 61 0 61 C0 40.87 0 20.74 0 0 Z " fill="#EAC4B1" transform="translate(1442,1241)"/>
<path d="M0 0 C39.93 0 79.86 0 121 0 C121 20.46 121 40.92 121 62 C81.07 62 41.14 62 0 62 C0 41.54 0 21.08 0 0 Z " fill="#FD8070" transform="translate(1321,1789)"/>
<path d="M0 0 C39.93 0 79.86 0 121 0 C121 20.46 121 40.92 121 62 C81.07 62 41.14 62 0 62 C0 41.54 0 21.08 0 0 Z " fill="#F6ACA5" transform="translate(1321,812)"/>
<path d="M0 0 C41.25 0 82.5 0 125 0 C125 19.8 125 39.6 125 60 C83.75 60 42.5 60 0 60 C0 40.2 0 20.4 0 0 Z " fill="#FEDFCF" transform="translate(1015,1546)"/>
<path d="M0 0 C40.92 0 81.84 0 124 0 C124 19.8 124 39.6 124 60 C83.08 60 42.16 60 0 60 C0 40.2 0 20.4 0 0 Z " fill="#EB5D46" transform="translate(954,1666)"/>
<path d="M0 0 C40.92 0 81.84 0 124 0 C124 19.8 124 39.6 124 60 C83.08 60 42.16 60 0 60 C0 40.2 0 20.4 0 0 Z " fill="#F8C7B2" transform="translate(954,1606)"/>
<path d="M0 0 C19.8 0 39.6 0 60 0 C60 40.92 60 81.84 60 124 C40.2 124 20.4 124 0 124 C0 83.08 0 42.16 0 0 Z " fill="#C16C73" transform="translate(102,1422)"/>
<path d="M0 0 C20.46 0 40.92 0 62 0 C62 39.6 62 79.2 62 120 C41.54 120 21.08 120 0 120 C0 80.4 0 40.8 0 0 Z " fill="#F59890" transform="translate(1198,1241)"/>
<path d="M0 0 C40.59 0 81.18 0 123 0 C123 19.8 123 39.6 123 60 C82.41 60 41.82 60 0 60 C0 40.2 0 20.4 0 0 Z " fill="#A15A60" transform="translate(711,2153)"/>
<path d="M0 0 C20.46 0 40.92 0 62 0 C62 39.27 62 78.54 62 119 C41.54 119 21.08 119 0 119 C0 79.73 0 40.46 0 0 Z " fill="#358080" transform="translate(1745,511)"/>
<path d="M0 0 C20.13 0 40.26 0 61 0 C61 39.6 61 79.2 61 120 C40.87 120 20.74 120 0 120 C0 80.4 0 40.8 0 0 Z " fill="#E16764" transform="translate(224,1302)"/>
<path d="M0 0 C20.13 0 40.26 0 61 0 C61 39.6 61 79.2 61 120 C40.87 120 20.74 120 0 120 C0 80.4 0 40.8 0 0 Z " fill="#F6988E" transform="translate(1260,1241)"/>
<path d="M0 0 C19.8 0 39.6 0 60 0 C60 40.26 60 80.52 60 122 C40.2 122 20.4 122 0 122 C0 81.74 0 41.48 0 0 Z " fill="#FCBAB5" transform="translate(894,630)"/>
<path d="M0 0 C20.46 0 40.92 0 62 0 C62 38.94 62 77.88 62 118 C41.54 118 21.08 118 0 118 C0 79.06 0 40.12 0 0 Z " fill="#85C8C7" transform="translate(1078,1059)"/>
<path d="M0 0 C39.93 0 79.86 0 121 0 C121 19.8 121 39.6 121 60 C81.07 60 41.14 60 0 60 C0 40.2 0 20.4 0 0 Z " fill="#EB5D46" transform="translate(1321,1666)"/>
<path d="M0 0 C39.6 0 79.2 0 120 0 C120 19.8 120 39.6 120 60 C80.4 60 40.8 60 0 60 C0 40.2 0 20.4 0 0 Z " fill="#FDD5C1" transform="translate(1140,1606)"/>
<path d="M0 0 C39.6 0 79.2 0 120 0 C120 19.8 120 39.6 120 60 C80.4 60 40.8 60 0 60 C0 40.2 0 20.4 0 0 Z " fill="#F3858F" transform="translate(1140,1546)"/>
<path d="M0 0 C19.8 0 39.6 0 60 0 C60 39.6 60 79.2 60 120 C40.2 120 20.4 120 0 120 C0 80.4 0 40.8 0 0 Z " fill="#B45151" transform="translate(2114,1302)"/>
<path d="M0 0 C38.61 0 77.22 0 117 0 C117 20.13 117 40.26 117 61 C78.39 61 39.78 61 0 61 C0 40.87 0 20.74 0 0 Z " fill="#C06C73" transform="translate(1690,205)"/>
<path d="M0 0 C41.25 0 82.5 0 125 0 C125 18.81 125 37.62 125 57 C83.75 57 42.5 57 0 57 C0 38.19 0 19.38 0 0 Z " fill="#54A19F" transform="translate(1565,1059)"/>
<path d="M0 0 C40.92 0 81.84 0 124 0 C124 18.81 124 37.62 124 57 C83.08 57 42.16 57 0 57 C0 38.19 0 19.38 0 0 Z " fill="#85C8C7" transform="translate(954,1059)"/>
<path d="M0 0 C18.81 0 37.62 0 57 0 C57 39.27 57 78.54 57 119 C38.19 119 19.38 119 0 119 C0 79.73 0 40.46 0 0 Z " fill="#358080" transform="translate(591,511)"/>
<path d="M0 0 C20.79 0 41.58 0 63 0 C63 20.79 63 41.58 63 63 C42.21 63 21.42 63 0 63 C0 42.21 0 21.42 0 0 Z " fill="#F48B84" transform="translate(648,1726)"/>
<path d="M0 0 C20.79 0 41.58 0 63 0 C63 20.79 63 41.58 63 63 C42.21 63 21.42 63 0 63 C0 42.21 0 21.42 0 0 Z " fill="#CF727C" transform="translate(1807,323)"/>
<path d="M0 0 C20.46 0 40.92 0 62 0 C62 21.12 62 42.24 62 64 C41.54 64 21.08 64 0 64 C0 42.88 0 21.76 0 0 Z " fill="#E16764" transform="translate(1745,1177)"/>
<path d="M0 0 C20.46 0 40.92 0 62 0 C62 21.12 62 42.24 62 64 C41.54 64 21.08 64 0 64 C0 42.88 0 21.76 0 0 Z " fill="#C1E5F1" transform="translate(1078,995)"/>
<path d="M0 0 C20.79 0 41.58 0 63 0 C63 20.46 63 40.92 63 62 C42.21 62 21.42 62 0 62 C0 41.54 0 21.08 0 0 Z " fill="#C06D72" transform="translate(1627,143)"/>
<path d="M0 0 C20.13 0 40.26 0 61 0 C61 21.12 61 42.24 61 64 C40.87 64 20.74 64 0 64 C0 42.88 0 21.76 0 0 Z " fill="#C78A8B" transform="translate(1442,2031)"/>
<path d="M0 0 C21.12 0 42.24 0 64 0 C64 20.13 64 40.26 64 61 C42.88 61 21.76 61 0 61 C0 40.87 0 20.74 0 0 Z " fill="#FCBDBC" transform="translate(527,1241)"/>
<path d="M0 0 C20.13 0 40.26 0 61 0 C61 21.12 61 42.24 61 64 C40.87 64 20.74 64 0 64 C0 42.88 0 21.76 0 0 Z " fill="#F3858F" transform="translate(1260,1177)"/>
<path d="M0 0 C20.13 0 40.26 0 61 0 C61 21.12 61 42.24 61 64 C40.87 64 20.74 64 0 64 C0 42.88 0 21.76 0 0 Z " fill="#FCD0D0" transform="translate(406,1177)"/>
<path d="M0 0 C20.13 0 40.26 0 61 0 C61 21.12 61 42.24 61 64 C40.87 64 20.74 64 0 64 C0 42.88 0 21.76 0 0 Z " fill="#C1E5F1" transform="translate(1260,995)"/>
<path d="M0 0 C21.12 0 42.24 0 64 0 C64 20.13 64 40.26 64 61 C42.88 61 21.76 61 0 61 C0 40.87 0 20.74 0 0 Z " fill="#F6ACA5" transform="translate(527,874)"/>
<path d="M0 0 C20.13 0 40.26 0 61 0 C61 20.79 61 41.58 61 63 C40.87 63 20.74 63 0 63 C0 42.21 0 21.42 0 0 Z " fill="#FD8070" transform="translate(1442,1726)"/>
<path d="M0 0 C20.13 0 40.26 0 61 0 C61 20.79 61 41.58 61 63 C40.87 63 20.74 63 0 63 C0 42.21 0 21.42 0 0 Z " fill="#E16764" transform="translate(954,1483)"/>
<path d="M0 0 C20.79 0 41.58 0 63 0 C63 20.13 63 40.26 63 61 C42.21 61 21.42 61 0 61 C0 40.87 0 20.74 0 0 Z " fill="#E16764" transform="translate(1627,1361)"/>
<path d="M0 0 C20.79 0 41.58 0 63 0 C63 20.13 63 40.26 63 61 C42.21 61 21.42 61 0 61 C0 40.87 0 20.74 0 0 Z " fill="#FCBDBC" transform="translate(1807,1241)"/>
<path d="M0 0 C20.79 0 41.58 0 63 0 C63 20.13 63 40.26 63 61 C42.21 61 21.42 61 0 61 C0 40.87 0 20.74 0 0 Z " fill="#F2FEFE" transform="translate(1627,1241)"/>
<path d="M0 0 C20.79 0 41.58 0 63 0 C63 20.13 63 40.26 63 61 C42.21 61 21.42 61 0 61 C0 40.87 0 20.74 0 0 Z " fill="#F3858F" transform="translate(1015,1241)"/>
<path d="M0 0 C20.79 0 41.58 0 63 0 C63 20.13 63 40.26 63 61 C42.21 61 21.42 61 0 61 C0 40.87 0 20.74 0 0 Z " fill="#E16764" transform="translate(648,1241)"/>
<path d="M0 0 C20.79 0 41.58 0 63 0 C63 20.13 63 40.26 63 61 C42.21 61 21.42 61 0 61 C0 40.87 0 20.74 0 0 Z " fill="#F6ACA5" transform="translate(1807,874)"/>
<path d="M0 0 C20.79 0 41.58 0 63 0 C63 20.13 63 40.26 63 61 C42.21 61 21.42 61 0 61 C0 40.87 0 20.74 0 0 Z " fill="#F79F8F" transform="translate(1015,874)"/>
<path d="M0 0 C20.13 0 40.26 0 61 0 C61 20.79 61 41.58 61 63 C40.87 63 20.74 63 0 63 C0 42.21 0 21.42 0 0 Z " fill="#358080" transform="translate(1442,567)"/>
<path d="M0 0 C19.8 0 39.6 0 60 0 C60 21.12 60 42.24 60 64 C40.2 64 20.4 64 0 64 C0 42.88 0 21.76 0 0 Z " fill="#C78A8B" transform="translate(894,2031)"/>
<path d="M0 0 C21.12 0 42.24 0 64 0 C64 19.8 64 39.6 64 60 C42.88 60 21.76 60 0 60 C0 40.2 0 20.4 0 0 Z " fill="#F79F8F" transform="translate(527,935)"/>
<path d="M0 0 C21.12 0 42.24 0 64 0 C64 19.8 64 39.6 64 60 C42.88 60 21.76 60 0 60 C0 40.2 0 20.4 0 0 Z " fill="#358080" transform="translate(527,692)"/>
<path d="M0 0 C20.13 0 40.26 0 61 0 C61 20.46 61 40.92 61 62 C40.87 62 20.74 62 0 62 C0 41.54 0 21.08 0 0 Z " fill="#FBAEAE" transform="translate(1442,1789)"/>
<path d="M0 0 C20.13 0 40.26 0 61 0 C61 20.46 61 40.92 61 62 C40.87 62 20.74 62 0 62 C0 41.54 0 21.08 0 0 Z " fill="#DC7A81" transform="translate(406,1789)"/>
<path d="M0 0 C20.46 0 40.92 0 62 0 C62 20.13 62 40.26 62 61 C41.54 61 21.08 61 0 61 C0 40.87 0 20.74 0 0 Z " fill="#F9C2A9" transform="translate(1078,1422)"/>
<path d="M0 0 C20.46 0 40.92 0 62 0 C62 20.13 62 40.26 62 61 C41.54 61 21.08 61 0 61 C0 40.87 0 20.74 0 0 Z " fill="#F9C5AE" transform="translate(1198,1361)"/>
<path d="M0 0 C20.46 0 40.92 0 62 0 C62 20.13 62 40.26 62 61 C41.54 61 21.08 61 0 61 C0 40.87 0 20.74 0 0 Z " fill="#E16764" transform="translate(711,1361)"/>
<path d="M0 0 C20.46 0 40.92 0 62 0 C62 20.13 62 40.26 62 61 C41.54 61 21.08 61 0 61 C0 40.87 0 20.74 0 0 Z " fill="#BBE2E8" transform="translate(1745,1116)"/>
<path d="M0 0 C20.46 0 40.92 0 62 0 C62 20.13 62 40.26 62 61 C41.54 61 21.08 61 0 61 C0 40.87 0 20.74 0 0 Z " fill="#F2FEFE" transform="translate(1503,1116)"/>
<path d="M0 0 C19.8 0 39.6 0 60 0 C60 20.79 60 41.58 60 63 C40.2 63 20.4 63 0 63 C0 42.21 0 21.42 0 0 Z " fill="#FD8070" transform="translate(894,1726)"/>
<path d="M0 0 C20.79 0 41.58 0 63 0 C63 19.8 63 39.6 63 60 C42.21 60 21.42 60 0 60 C0 40.2 0 20.4 0 0 Z " fill="#85C8C7" transform="translate(648,1666)"/>
<path d="M0 0 C20.79 0 41.58 0 63 0 C63 19.8 63 39.6 63 60 C42.21 60 21.42 60 0 60 C0 40.2 0 20.4 0 0 Z " fill="#F79F8F" transform="translate(1807,935)"/>
<path d="M0 0 C20.79 0 41.58 0 63 0 C63 19.8 63 39.6 63 60 C42.21 60 21.42 60 0 60 C0 40.2 0 20.4 0 0 Z " fill="#C1E5F1" transform="translate(1015,935)"/>
<path d="M0 0 C20.79 0 41.58 0 63 0 C63 19.8 63 39.6 63 60 C42.21 60 21.42 60 0 60 C0 40.2 0 20.4 0 0 Z " fill="#358080" transform="translate(1807,692)"/>
<path d="M0 0 C20.79 0 41.58 0 63 0 C63 19.8 63 39.6 63 60 C42.21 60 21.42 60 0 60 C0 40.2 0 20.4 0 0 Z " fill="#F6ACA5" transform="translate(648,692)"/>
<path d="M0 0 C19.8 0 39.6 0 60 0 C60 20.79 60 41.58 60 63 C40.2 63 20.4 63 0 63 C0 42.21 0 21.42 0 0 Z " fill="#358080" transform="translate(894,567)"/>
<path d="M0 0 C20.13 0 40.26 0 61 0 C61 20.13 61 40.26 61 61 C40.87 61 20.74 61 0 61 C0 40.87 0 20.74 0 0 Z " fill="#E16764" transform="translate(1442,1422)"/>
<path d="M0 0 C20.13 0 40.26 0 61 0 C61 20.13 61 40.26 61 61 C40.87 61 20.74 61 0 61 C0 40.87 0 20.74 0 0 Z " fill="#F9B78F" transform="translate(954,1422)"/>
<path d="M0 0 C20.13 0 40.26 0 61 0 C61 20.13 61 40.26 61 61 C40.87 61 20.74 61 0 61 C0 40.87 0 20.74 0 0 Z " fill="#F8C7B2" transform="translate(1442,1241)"/>
<path d="M0 0 C20.13 0 40.26 0 61 0 C61 20.13 61 40.26 61 61 C40.87 61 20.74 61 0 61 C0 40.87 0 20.74 0 0 Z " fill="#F2FEFE" transform="translate(954,1241)"/>
<path d="M0 0 C20.13 0 40.26 0 61 0 C61 20.13 61 40.26 61 61 C40.87 61 20.74 61 0 61 C0 40.87 0 20.74 0 0 Z " fill="#B45151" transform="translate(1990,1116)"/>
<path d="M0 0 C20.13 0 40.26 0 61 0 C61 20.13 61 40.26 61 61 C40.87 61 20.74 61 0 61 C0 40.87 0 20.74 0 0 Z " fill="#85C8C7" transform="translate(1260,1116)"/>
<path d="M0 0 C20.13 0 40.26 0 61 0 C61 20.13 61 40.26 61 61 C40.87 61 20.74 61 0 61 C0 40.87 0 20.74 0 0 Z " fill="#5CA2A0" transform="translate(773,1116)"/>
<path d="M0 0 C19.8 0 39.6 0 60 0 C60 20.46 60 40.92 60 62 C40.2 62 20.4 62 0 62 C0 41.54 0 21.08 0 0 Z " fill="#FBAEAE" transform="translate(894,1789)"/>
<path d="M0 0 C20.46 0 40.92 0 62 0 C62 19.8 62 39.6 62 60 C41.54 60 21.08 60 0 60 C0 40.2 0 20.4 0 0 Z " fill="#FBAEAE" transform="translate(1503,1666)"/>
<path d="M0 0 C20.46 0 40.92 0 62 0 C62 19.8 62 39.6 62 60 C41.54 60 21.08 60 0 60 C0 40.2 0 20.4 0 0 Z " fill="#F79A9F" transform="translate(1745,1606)"/>
<path d="M0 0 C20.46 0 40.92 0 62 0 C62 19.8 62 39.6 62 60 C41.54 60 21.08 60 0 60 C0 40.2 0 20.4 0 0 Z " fill="#C1E5F1" transform="translate(1565,1606)"/>
<path d="M0 0 C20.46 0 40.92 0 62 0 C62 19.8 62 39.6 62 60 C41.54 60 21.08 60 0 60 C0 40.2 0 20.4 0 0 Z " fill="#FCD5C0" transform="translate(1078,1546)"/>
<path d="M0 0 C20.46 0 40.92 0 62 0 C62 19.8 62 39.6 62 60 C41.54 60 21.08 60 0 60 C0 40.2 0 20.4 0 0 Z " fill="#C1E5F1" transform="translate(1745,935)"/>
<path d="M0 0 C20.46 0 40.92 0 62 0 C62 19.8 62 39.6 62 60 C41.54 60 21.08 60 0 60 C0 40.2 0 20.4 0 0 Z " fill="#C1E5F1" transform="translate(1321,935)"/>
<path d="M0 0 C20.46 0 40.92 0 62 0 C62 19.8 62 39.6 62 60 C41.54 60 21.08 60 0 60 C0 40.2 0 20.4 0 0 Z " fill="#F6ACA5" transform="translate(1745,752)"/>
<path d="M0 0 C20.46 0 40.92 0 62 0 C62 19.8 62 39.6 62 60 C41.54 60 21.08 60 0 60 C0 40.2 0 20.4 0 0 Z " fill="#C16C73" transform="translate(1503,83)"/>
<path d="M0 0 C19.47 0 38.94 0 59 0 C59 20.79 59 41.58 59 63 C39.53 63 20.06 63 0 63 C0 42.21 0 21.42 0 0 Z " fill="#E16764" transform="translate(1383,1483)"/>
<path d="M0 0 C19.14 0 38.28 0 58 0 C58 21.12 58 42.24 58 64 C38.86 64 19.72 64 0 64 C0 42.88 0 21.76 0 0 Z " fill="#FCD0D0" transform="translate(1932,1177)"/>
<path d="M0 0 C20.13 0 40.26 0 61 0 C61 19.8 61 39.6 61 60 C40.87 60 20.74 60 0 60 C0 40.2 0 20.4 0 0 Z " fill="#AE626A" transform="translate(773,2153)"/>
<path d="M0 0 C20.13 0 40.26 0 61 0 C61 19.8 61 39.6 61 60 C40.87 60 20.74 60 0 60 C0 40.2 0 20.4 0 0 Z " fill="#FBAEAE" transform="translate(954,1971)"/>
<path d="M0 0 C20.13 0 40.26 0 61 0 C61 19.8 61 39.6 61 60 C40.87 60 20.74 60 0 60 C0 40.2 0 20.4 0 0 Z " fill="#D87980" transform="translate(773,1971)"/>
<path d="M0 0 C20.13 0 40.26 0 61 0 C61 19.8 61 39.6 61 60 C40.87 60 20.74 60 0 60 C0 40.2 0 20.4 0 0 Z " fill="#A15A60" transform="translate(406,1971)"/>
<path d="M0 0 C20.13 0 40.26 0 61 0 C61 19.8 61 39.6 61 60 C40.87 60 20.74 60 0 60 C0 40.2 0 20.4 0 0 Z " fill="#FB9D60" transform="translate(1442,1666)"/>
<path d="M0 0 C20.13 0 40.26 0 61 0 C61 19.8 61 39.6 61 60 C40.87 60 20.74 60 0 60 C0 40.2 0 20.4 0 0 Z " fill="#F8AA76" transform="translate(1442,1606)"/>
<path d="M0 0 C20.13 0 40.26 0 61 0 C61 19.8 61 39.6 61 60 C40.87 60 20.74 60 0 60 C0 40.2 0 20.4 0 0 Z " fill="#FDDDCE" transform="translate(954,1606)"/>
<path d="M0 0 C20.13 0 40.26 0 61 0 C61 19.8 61 39.6 61 60 C40.87 60 20.74 60 0 60 C0 40.2 0 20.4 0 0 Z " fill="#C1E5F1" transform="translate(773,1606)"/>
<path d="M0 0 C20.13 0 40.26 0 61 0 C61 19.8 61 39.6 61 60 C40.87 60 20.74 60 0 60 C0 40.2 0 20.4 0 0 Z " fill="#C97079" transform="translate(224,1606)"/>
<path d="M0 0 C19.8 0 39.6 0 60 0 C60 20.13 60 40.26 60 61 C40.2 61 20.4 61 0 61 C0 40.87 0 20.74 0 0 Z " fill="#E16764" transform="translate(894,1422)"/>
<path d="M0 0 C19.8 0 39.6 0 60 0 C60 20.13 60 40.26 60 61 C40.2 61 20.4 61 0 61 C0 40.87 0 20.74 0 0 Z " fill="#EAC4B1" transform="translate(834,1241)"/>
<path d="M0 0 C19.8 0 39.6 0 60 0 C60 20.13 60 40.26 60 61 C40.2 61 20.4 61 0 61 C0 40.87 0 20.74 0 0 Z " fill="#F2FEFE" transform="translate(894,1116)"/>
<path d="M0 0 C20.13 0 40.26 0 61 0 C61 19.8 61 39.6 61 60 C40.87 60 20.74 60 0 60 C0 40.2 0 20.4 0 0 Z " fill="#F6ACA5" transform="translate(954,752)"/>
<path d="M0 0 C20.13 0 40.26 0 61 0 C61 19.8 61 39.6 61 60 C40.87 60 20.74 60 0 60 C0 40.2 0 20.4 0 0 Z " fill="#F6ACA5" transform="translate(1442,692)"/>
<path d="M0 0 C19.47 0 38.94 0 59 0 C59 20.46 59 40.92 59 62 C39.53 62 20.06 62 0 62 C0 41.54 0 21.08 0 0 Z " fill="#F79F8F" transform="translate(1383,812)"/>
<path d="M0 0 C19.47 0 38.94 0 59 0 C59 20.46 59 40.92 59 62 C39.53 62 20.06 62 0 62 C0 41.54 0 21.08 0 0 Z " fill="#358080" transform="translate(1383,630)"/>
<path d="M0 0 C19.14 0 38.28 0 58 0 C58 20.79 58 41.58 58 63 C38.86 63 19.72 63 0 63 C0 42.21 0 21.42 0 0 Z " fill="#D87980" transform="translate(1932,567)"/>
<path d="M0 0 C18.81 0 37.62 0 57 0 C57 21.12 57 42.24 57 64 C38.19 64 19.38 64 0 64 C0 42.88 0 21.76 0 0 Z " fill="#E16764" transform="translate(591,1177)"/>
<path d="M0 0 C19.8 0 39.6 0 60 0 C60 19.8 60 39.6 60 60 C40.2 60 20.4 60 0 60 C0 40.2 0 20.4 0 0 Z " fill="#FB9D60" transform="translate(894,1666)"/>
<path d="M0 0 C19.8 0 39.6 0 60 0 C60 19.8 60 39.6 60 60 C40.2 60 20.4 60 0 60 C0 40.2 0 20.4 0 0 Z " fill="#FBAEAE" transform="translate(834,1666)"/>
<path d="M0 0 C19.8 0 39.6 0 60 0 C60 19.8 60 39.6 60 60 C40.2 60 20.4 60 0 60 C0 40.2 0 20.4 0 0 Z " fill="#FB9D60" transform="translate(834,1606)"/>
<path d="M0 0 C19.8 0 39.6 0 60 0 C60 19.8 60 39.6 60 60 C40.2 60 20.4 60 0 60 C0 40.2 0 20.4 0 0 Z " fill="#F6ACA5" transform="translate(894,692)"/>
<path d="M0 0 C19.47 0 38.94 0 59 0 C59 20.13 59 40.26 59 61 C39.53 61 20.06 61 0 61 C0 40.87 0 20.74 0 0 Z " fill="#F3858F" transform="translate(1383,1910)"/>
<path d="M0 0 C19.47 0 38.94 0 59 0 C59 20.13 59 40.26 59 61 C39.53 61 20.06 61 0 61 C0 40.87 0 20.74 0 0 Z " fill="#B1636B" transform="translate(347,1910)"/>
<path d="M0 0 C19.47 0 38.94 0 59 0 C59 20.13 59 40.26 59 61 C39.53 61 20.06 61 0 61 C0 40.87 0 20.74 0 0 Z " fill="#F9B78F" transform="translate(1383,1422)"/>
<path d="M0 0 C20.13 0 40.26 0 61 0 C61 19.47 61 38.94 61 59 C40.87 59 20.74 59 0 59 C0 39.53 0 20.06 0 0 Z " fill="#C7A3A3" transform="translate(1990,1302)"/>
<path d="M0 0 C20.13 0 40.26 0 61 0 C61 19.47 61 38.94 61 59 C40.87 59 20.74 59 0 59 C0 39.53 0 20.06 0 0 Z " fill="#E16764" transform="translate(1260,1302)"/>
<path d="M0 0 C19.47 0 38.94 0 59 0 C59 20.13 59 40.26 59 61 C39.53 61 20.06 61 0 61 C0 40.87 0 20.74 0 0 Z " fill="#F58E7D" transform="translate(1383,1241)"/>
<path d="M0 0 C19.47 0 38.94 0 59 0 C59 19.8 59 39.6 59 60 C39.53 60 20.06 60 0 60 C0 40.2 0 20.4 0 0 Z " fill="#AC6269" transform="translate(1383,2153)"/>
<path d="M0 0 C19.47 0 38.94 0 59 0 C59 19.8 59 39.6 59 60 C39.53 60 20.06 60 0 60 C0 40.2 0 20.4 0 0 Z " fill="#C78A8B" transform="translate(1383,1971)"/>
<path d="M0 0 C19.47 0 38.94 0 59 0 C59 19.8 59 39.6 59 60 C39.53 60 20.06 60 0 60 C0 40.2 0 20.4 0 0 Z " fill="#F6ACA5" transform="translate(1383,752)"/>
<path d="M0 0 C19.14 0 38.28 0 58 0 C58 20.13 58 40.26 58 61 C38.86 61 19.72 61 0 61 C0 40.87 0 20.74 0 0 Z " fill="#FCD5C0" transform="translate(1140,1361)"/>
<path d="M0 0 C20.46 0 40.92 0 62 0 C62 18.81 62 37.62 62 57 C41.54 57 21.08 57 0 57 C0 38.19 0 19.38 0 0 Z " fill="#9DD3D6" transform="translate(1078,1059)"/>
<path d="M0 0 C20.46 0 40.92 0 62 0 C62 18.81 62 37.62 62 57 C41.54 57 21.08 57 0 57 C0 38.19 0 19.38 0 0 Z " fill="#52A19F" transform="translate(711,1059)"/>
<path d="M0 0 C20.46 0 40.92 0 62 0 C62 18.81 62 37.62 62 57 C41.54 57 21.08 57 0 57 C0 38.19 0 19.38 0 0 Z " fill="#E68089" transform="translate(1745,266)"/>
<path d="M0 0 C19.47 0 38.94 0 59 0 C59 19.47 59 38.94 59 59 C39.53 59 20.06 59 0 59 C0 39.53 0 20.06 0 0 Z " fill="#FDCECF" transform="translate(347,1302)"/>
<path d="M0 0 C19.47 0 38.94 0 59 0 C59 19.47 59 38.94 59 59 C39.53 59 20.06 59 0 59 C0 39.53 0 20.06 0 0 Z " fill="#C16C73" transform="translate(43,1302)"/>
<path d="M0 0 C19.14 0 38.28 0 58 0 C58 19.8 58 39.6 58 60 C38.86 60 19.72 60 0 60 C0 40.2 0 20.4 0 0 Z " fill="#FEDFCF" transform="translate(1140,1606)"/>
<path d="M0 0 C19.14 0 38.28 0 58 0 C58 19.8 58 39.6 58 60 C38.86 60 19.72 60 0 60 C0 40.2 0 20.4 0 0 Z " fill="#EE809D" transform="translate(1140,1546)"/>
<path d="M0 0 C18.81 0 37.62 0 57 0 C57 20.13 57 40.26 57 61 C38.19 61 19.38 61 0 61 C0 40.87 0 20.74 0 0 Z " fill="#BBE2E8" transform="translate(591,1116)"/>
<path d="M0 0 C20.13 0 40.26 0 61 0 C61 18.81 61 37.62 61 57 C40.87 57 20.74 57 0 57 C0 38.19 0 19.38 0 0 Z " fill="#9DD3D6" transform="translate(1260,1059)"/>
<path d="M0 0 C20.13 0 40.26 0 61 0 C61 18.81 61 37.62 61 57 C40.87 57 20.74 57 0 57 C0 38.19 0 19.38 0 0 Z " fill="#57A29F" transform="translate(954,1059)"/>
<path d="M0 0 C20.13 0 40.26 0 61 0 C61 18.81 61 37.62 61 57 C40.87 57 20.74 57 0 57 C0 38.19 0 19.38 0 0 Z " fill="#9FC8C7" transform="translate(773,1059)"/>
<path d="M0 0 C20.46 0 40.92 0 62 0 C62 18.48 62 36.96 62 56 C41.54 56 21.08 56 0 56 C0 37.52 0 19.04 0 0 Z " fill="#52A19F" transform="translate(1745,511)"/>
<path d="M0 0 C20.46 0 40.92 0 62 0 C62 18.48 62 36.96 62 56 C41.54 56 21.08 56 0 56 C0 37.52 0 19.04 0 0 Z " fill="#358080" transform="translate(1503,511)"/>
<path d="M0 0 C18.15 0 36.3 0 55 0 C55 20.79 55 41.58 55 63 C36.85 63 18.7 63 0 63 C0 42.21 0 21.42 0 0 Z " fill="#CB7470" transform="translate(1690,1726)"/>
<path d="M0 0 C18.81 0 37.62 0 57 0 C57 19.8 57 39.6 57 60 C38.19 60 19.38 60 0 60 C0 40.2 0 20.4 0 0 Z " fill="#F79A9F" transform="translate(591,1606)"/>
<path d="M0 0 C18.81 0 37.62 0 57 0 C57 19.8 57 39.6 57 60 C38.19 60 19.38 60 0 60 C0 40.2 0 20.4 0 0 Z " fill="#C1E5F1" transform="translate(591,935)"/>
<path d="M0 0 C18.81 0 37.62 0 57 0 C57 19.8 57 39.6 57 60 C38.19 60 19.38 60 0 60 C0 40.2 0 20.4 0 0 Z " fill="#F6ACA5" transform="translate(591,752)"/>
<path d="M0 0 C19.47 0 38.94 0 59 0 C59 18.81 59 37.62 59 57 C39.53 57 20.06 57 0 57 C0 38.19 0 19.38 0 0 Z " fill="#52A1A0" transform="translate(1383,1059)"/>
<path d="M0 0 C19.8 0 39.6 0 60 0 C60 18.48 60 36.96 60 56 C40.2 56 20.4 56 0 56 C0 37.52 0 19.04 0 0 Z " fill="#358080" transform="translate(834,511)"/>
<path d="M0 0 C18.15 0 36.3 0 55 0 C55 20.13 55 40.26 55 61 C36.85 61 18.7 61 0 61 C0 40.87 0 20.74 0 0 Z " fill="#E16764" transform="translate(1690,1241)"/>
<path d="M0 0 C18.81 0 37.62 0 57 0 C57 19.14 57 38.28 57 58 C38.19 58 19.38 58 0 58 C0 38.86 0 19.72 0 0 Z " fill="#A15A60" transform="translate(591,2095)"/>
<path d="M0 0 C18.15 0 36.3 0 55 0 C55 19.8 55 39.6 55 60 C36.85 60 18.7 60 0 60 C0 40.2 0 20.4 0 0 Z " fill="#85C8C7" transform="translate(1690,1666)"/>
<path d="M0 0 C18.15 0 36.3 0 55 0 C55 19.8 55 39.6 55 60 C36.85 60 18.7 60 0 60 C0 40.2 0 20.4 0 0 Z " fill="#F6ACA5" transform="translate(1690,692)"/>
<path d="M0 0 C18.15 0 36.3 0 55 0 C55 19.47 55 38.94 55 59 C36.85 59 18.7 59 0 59 C0 39.53 0 20.06 0 0 Z " fill="#F7A2A1" transform="translate(1690,1302)"/>
<path d="M0 0 C18.81 0 37.62 0 57 0 C57 18.48 57 36.96 57 56 C38.19 56 19.38 56 0 56 C0 37.52 0 19.04 0 0 Z " fill="#52A19F" transform="translate(591,511)"/>
<path d="M0 0 C19.8 0 39.6 0 60 0 C60 3.3 60 6.6 60 10 C59.01 10 58.02 10 57 10 C57 9.34 57 8.68 57 8 C56.3709375 8.01160156 55.741875 8.02320312 55.09375 8.03515625 C49.61930912 8.09286873 44.41542194 7.80228473 39 7 C39 6.34 39 5.68 39 5 C38.19820313 5.01160156 37.39640625 5.02320312 36.5703125 5.03515625 C26.67761686 5.11366971 16.86959959 4.62664124 7 4 C7 3.34 7 2.68 7 2 C4.69 2 2.38 2 0 2 C0 1.34 0 0.68 0 0 Z " fill="#788C91" transform="translate(467,2213)"/>
<path d="M0 0 C8.58 0 17.16 0 26 0 C26 0.66 26 1.32 26 2 C30.95 2 35.9 2 41 2 C41 2.66 41 3.32 41 4 C42.65 4 44.3 4 46 4 C46 4.33 46 4.66 46 5 C32.9551135 5.11578302 20.0162744 4.89000167 7 4 C7 3.34 7 2.68 7 2 C4.69 2 2.38 2 0 2 C0 1.34 0 0.68 0 0 Z " fill="#BCE3E3" transform="translate(467,2213)"/>
<path d="M0 0 C2.97 0 5.94 0 9 0 C9 1.65 9 3.3 9 5 C7.02 5 5.04 5 3 5 C3 4.01 3 3.02 3 2 C2.01 2 1.02 2 0 2 C0 1.34 0 0.68 0 0 Z " fill="#70B3BA" transform="translate(518,2213)"/>
<path d="M0 0 C2 1 2 1 2 1 Z " fill="#0000FF" transform="translate(181,2381)"/>
</svg>
